<svg height="512pt" viewBox="0 0 512 512" width="512pt" xmlns="http://www.w3.org/2000/svg" xmlns:xlink="http://www.w3.org/1999/xlink">
	<linearGradient id="a" gradientTransform="matrix(1 0 0 -1 0 -16582)" gradientUnits="userSpaceOnUse" x1="0" x2="512" y1="-16838" y2="-16838">
		<stop offset="0" stop-color="#e0acc4"/>
		<stop offset="1" stop-color="#5e4ec4"/></linearGradient>
		<path d="m512 256c0 141.386719-114.613281 256-256 256s-256-114.613281-256-256 114.613281-256 256-256 256 114.613281 256 256zm0 0" fill="url(#a)"/><g fill="#fff"><path d="m418.460938 237.292969c-15.925782-16.21875-37.035157-25.617188-59.5625-26.601563-.101563-1.394531-.175782-3.289062-.175782-5.855468 0-10.894532 8.292969-44.207032 13.523438-62.648438l5.410156-19.089844h-65.261719l-4.402343 7.089844c-1.726563 2.78125-42.296876 69.296875-42.296876 169.5625 0 49.160156 39.992188 89.152344 89.152344 89.152344s89.152344-39.992188 89.152344-89.152344c0-23.507812-9.070312-45.6875-25.539062-62.457031zm-63.613282 121.609375c-32.617187 0-59.152344-26.535156-59.152344-59.152344 0-73.492188 24.257813-127.921875 33.902344-146.652344h8.675782c-4.253907 16.742188-9.546876 39.9375-9.546876 51.738282 0 9.414062.699219 16.980468 4.121094 23.3125 3.054688 5.648437 9.4375 12.378906 22.527344 12.449218l.644531.015625c31.972657.617188 57.980469 27.148438 57.980469 59.136719 0 32.617188-26.535156 59.152344-59.152344 59.152344zm0 0"/><path d="m157.203125 210.691406c-.101563-1.394531-.175781-3.289062-.175781-5.855468 0-10.894532 8.292968-44.207032 13.523437-62.648438l5.410157-19.089844h-65.265626l-4.398437 7.089844c-1.726563 2.78125-42.296875 69.296875-42.296875 169.5625 0 49.160156 39.992188 89.152344 89.152344 89.152344s89.152344-39.992188 89.152344-89.152344c0-23.507812-9.070313-45.6875-25.539063-62.457031-15.925781-16.21875-37.035156-25.617188-59.5625-26.601563zm-4.050781 148.210938c-32.617188 0-59.152344-26.535156-59.152344-59.152344 0-73.492188 24.257812-127.921875 33.902344-146.652344h8.675781c-4.257813 16.742188-9.550781 39.9375-9.550781 51.738282 0 9.414062.703125 16.980468 4.125 23.3125 3.050781 5.648437 9.4375 12.378906 22.527344 12.449218l.644531.015625c31.972656.621094 57.980469 27.148438 57.980469 59.136719 0 32.617188-26.535157 59.152344-59.152344 59.152344zm0 0"/></g></svg>